<?xml version="1.0" standalone="no"?>
<!DOCTYPE svg PUBLIC "-//W3C//DTD SVG 20010904//EN"
 "http://www.w3.org/TR/2001/REC-SVG-20010904/DTD/svg10.dtd">
<svg version="1.0" xmlns="http://www.w3.org/2000/svg"
 width="1280.000000pt" height="960.000000pt" viewBox="0 0 1280.000000 960.000000"
 preserveAspectRatio="xMidYMid meet">
<metadata>
Created by potrace 1.15, written by Peter Selinger 2001-2017
</metadata>
<g transform="translate(0.000000,960.000000) scale(0.100000,-0.100000)"
fill="#9c27b0" stroke="none">
<path d="M3590 6904 c-25 -2 -130 -11 -235 -20 -451 -36 -976 -130 -1470 -261
-93 -25 -176 -46 -184 -47 -8 -2 -40 -61 -72 -132 l-58 -129 -90 -3 -90 -3
-10 -37 c-5 -20 -61 -273 -125 -562 -63 -289 -199 -903 -301 -1365 -102 -462
-210 -950 -240 -1085 -243 -1105 -367 -1664 -380 -1717 -8 -34 -15 -68 -15
-75 0 -14 297 -14 3625 0 l1730 7 115 -46 c230 -93 383 -123 620 -122 230 0
376 26 701 123 l167 50 301 0 301 0 5 -28 c3 -15 17 -72 31 -127 76 -307 296
-570 687 -820 l27 -17 22 53 c67 165 229 444 262 453 31 8 360 -79 779 -206
109 -32 203 -58 208 -56 6 2 -36 42 -93 90 -135 112 -307 291 -386 403 -62 87
-158 253 -151 260 2 1 736 7 1630 12 l1627 8 -727 2282 -726 2282 -63 7 c-44
4 -65 11 -70 22 -11 30 -173 317 -188 333 -8 8 -14 20 -14 26 0 6 -80 42 -177
81 -1118 443 -2526 487 -3948 122 -209 -53 -486 -135 -525 -155 -22 -11 -40
-6 -170 50 -391 168 -824 275 -1340 331 -137 15 -870 28 -990 18z"/>
</g>
</svg>
